<?xml version="1.0" standalone="no"?>
<!DOCTYPE svg PUBLIC "-//W3C//DTD SVG 20010904//EN"
 "http://www.w3.org/TR/2001/REC-SVG-20010904/DTD/svg10.dtd">
<svg version="1.0" xmlns="http://www.w3.org/2000/svg"
 width="300.000000pt" height="300.000000pt" viewBox="0 0 300.000000 300.000000"
 preserveAspectRatio="xMidYMid meet">
<metadata>
Created by potrace 1.11, written by Peter Selinger 2001-2013
</metadata>
<g transform="translate(0.000000,300.000000) scale(0.100000,-0.100000)"
fill="#000000" stroke="none">
<path d="M1362 2898 c-259 -29 -492 -118 -686 -262 -363 -268 -568 -660 -581
-1110 -6 -214 48 -455 145 -648 115 -229 267 -400 506 -566 73 -51 319 -160
366 -162 4 -1 26 -7 48 -15 22 -8 40 -12 40 -10 0 2 14 0 30 -5 78 -22 281
-31 425 -17 361 33 740 247 959 542 80 107 90 123 141 223 103 205 148 399
149 637 0 92 -11 232 -19 245 -3 4 -7 25 -11 46 -9 65 -70 237 -115 326 -39
79 -104 187 -118 198 -4 3 -14 16 -22 30 -38 60 -199 218 -294 288 -122 90
-367 204 -485 225 -14 3 -44 10 -67 16 -23 6 -45 10 -50 9 -4 -1 -33 2 -63 7
-72 10 -219 12 -298 3z m-173 -913 c24 -61 47 -119 52 -130 18 -43 310 -801
314 -815 2 -8 29 -78 59 -155 31 -77 56 -143 56 -148 0 -4 -75 -6 -166 -5
l-165 3 -99 235 c-336 798 -468 1116 -465 1120 2 3 86 5 187 5 l183 0 44 -110z
m1041 107 c0 -2 -22 -56 -49 -120 -27 -65 -86 -205 -131 -312 -45 -107 -93
-219 -106 -248 -13 -29 -24 -55 -24 -58 0 -3 -13 -35 -30 -71 -16 -35 -30 -66
-30 -69 0 -5 -91 -218 -94 -222 -2 -1 -29 64 -60 145 -32 81 -62 157 -67 168
-5 11 -17 44 -28 73 l-18 53 120 307 c66 169 122 317 124 329 3 12 12 23 21
25 23 4 372 4 372 0z"/>
</g>
</svg>
